<svg xmlns="http://www.w3.org/2000/svg" width="333.1" height="128" viewBox="0 0 666.3 256"><defs><linearGradient id="a" x1="30.06" x2="225.9" y1="30.06" y2="225.9" gradientUnits="userSpaceOnUse"><stop offset="0" stop-color="#5a5350"/><stop offset=".107" stop-color="#6f6662"/><stop offset=".35" stop-color="#6f6662"/><stop offset=".5" stop-color="#7c726e"/><stop offset=".702" stop-color="#6f6662"/><stop offset=".887" stop-color="#6f6662"/><stop offset="1" stop-color="#5a5350"/></linearGradient></defs><rect width="256" height="256" rx="55" ry="55" style="fill:#ddd"/><rect width="246" height="246" x="5" y="5" rx="50" ry="50" style="fill:#7c726e"/><rect width="236" height="236" x="10" y="10" rx="47" ry="47" style="fill:url(#a)"/><circle cx="68" cy="189" r="24" style="fill:#eee"/><path d="M160.1 213H126a82 82 0 0 0-82-82V97a116 116 0 0 1 116.1 116z" style="fill:#eee"/><path d="M184.1 213A140 140 0 0 0 44 73V38a175 175 0 0 1 175.1 175z" style="fill:#eee"/><path d="M333.2 49.54q11.6-6.72 18.3-6.72 4.8 0 7.2 3.36 2.4 3.2 2.4 8.8v47.52h25.1V53.06q0-14.24-6.6-22.4-6.4-8.32-20.8-8.32-7.3 0-15.6 3.04-8.2 2.88-15.2 7.68l-4.4-8.16h-15.5v77.6h25.1zm141 13.44q0-11.36-4.2-20.48-4-9.12-12.1-14.56-8.2-5.44-20-5.44-11.9 0-21.1 5.12-9.2 4.96-14.3 14.4-5.1 9.28-5.1 21.76 0 19.04 12.2 29.76 12.3 10.76 33.6 10.76 9.4 0 17.2-2.4 8-2.44 13.5-6.44l-7.1-17.44Q456 84.1 444.9 84.1q-16.9 0-20.5-13.6h49.8zm-50.1-6.72q.7-5.92 4.2-9.44 3.7-3.68 8.9-3.68 5.6 0 8.8 3.68 3.4 3.52 4.4 9.44zm149.1 46.24 25.3-77.6h-25.4l-10.6 44.48-11.7-44.48h-25.2l-10.9 44.48L503 22.02l-23.7 6.88 23.5 73.6h22.1l13-43.84 13.3 43.84zm30.8-6.72q5.4 4.32 14.5 6.42 9.1 2.1 15.5 2.1 15.9 0 24-6.6 8.4-6.56 8.4-18.56 0-16.64-26.8-25.92-10-3.52-10-6.08 0-2.24 2.4-3.68t6-1.44q8.7 0 19.9 4.96l7.2-16.32q-5.6-4.16-13.8-6.08-8-2.08-14.1-2.08-15 0-23.6 6.72-8.7 6.56-8.7 18.08 0 9.12 7.5 15.04 7.6 5.92 19.2 9.92 5 1.6 7.7 3.52 2.9 1.92 2.9 4 0 2.4-3 3.84-2.9 1.28-6.8 1.28-4.1 0-10.2-1.44-5.9-1.6-10.9-4z" style="font-weight:800;font-size:160px;line-height:129.34px;font-family:Catamaran;-inkscape-font-specification:&quot;Catamaran Ultra-Bold&quot;;letter-spacing:0;word-spacing:0;fill:#dfe1e2;stroke-width:2px"/><path d="M373.1 119.1v112.8h-7.7L363 226q-4.8 3.8-10.4 5.9Q347 234 342 234q-17.2 0-27.2-11.2-9.7-11.4-9.7-30.1 0-11.8 4.5-21 4.6-9.2 12.9-14.4 8.5-5.1 19.9-5.1 4.1 0 8.8 1.6 4.8 1.6 9.1 4.3v-37.6zm-31.2 104.2q5.7 0 10.1-1.8 4.4-1.9 8.3-5.8v-45.9q-7.7-6.9-18.3-6.9-11.5 0-17.7 8.4-6.3 8.1-6.4 21.2 0 14 6.1 22.4 6.2 8.4 17.9 8.4zm79.2-54.8q5.8-2.5 10.6-3.8 4.9-1.4 11.8-1.4 8.8 0 12.8 4.9 4.2 5 4.2 13.6v4.3h-20q-12.7 0-20.4 6.3-7.6 6.2-7.6 17.4 0 10.7 6.7 17.5 6.9 6.7 19.8 6.7 6.1 0 12.5-2.9 6.4-3 10.7-7l1.6 7.8h9.5v-53.6q0-7.5-3.9-13.4-3.8-6-10.7-9.3-6.9-3.4-15.7-3.4-5.3 0-13.4 1.9-8 2-12.2 4.8zm3 41.3q0-6.4 4.2-10.7 4.3-4.5 11.8-4.5h20.5v17.6q-4.3 5.1-10.1 8.3-5.6 3.2-11.8 3.2-7.2 0-10.9-4.1-3.7-4.2-3.7-9.8zm84.4 17.6q4.3 3.1 11.8 4.8 7.5 1.8 13 1.8 15 0 23-5.9 8.2-6 8.2-16.7 0-15-26.1-24.6-8.6-2.9-13.3-5.9-4.6-3.1-4.8-7.2 0-5 4.5-8 4.6-3.2 11.8-3.2 6 0 10.6 1.4t9.9 3.8l4-8.6q-4.1-3-11.5-5-7.2-1.9-12.6-1.9-13.5 0-21.3 5.9-7.7 5.8-7.7 16 0 8.5 7 14 7.1 5.4 18.3 9.1 19.2 6.4 19.2 15 0 5.5-5.1 8.5-5.2 3-14 3-10 0-20.9-5.4zm133.4-75.5q12.4 0 18.3 7.5 6.1 7.4 6.1 19.9v52.4h-12.7V181q0-8.6-3.2-13.4-3.2-4.8-10.7-4.8-5.8 0-13.1 4-7.2 4-12.8 10.1v55h-12.7V120.5l12.7-1.6v45.3q5.6-5.4 13.3-8.8 7.8-3.5 14.8-3.5z" style="font-size:160px;line-height:129.34px;font-family:Catamaran;-inkscape-font-specification:Catamaran;letter-spacing:19.86px;word-spacing:0;fill:#a1948e;stroke-width:2px"/></svg>