<svg xmlns="http://www.w3.org/2000/svg" width="333.1" height="128" viewBox="0 0 666.2 256"><defs><linearGradient gradientTransform="translate(-.05)" x1="30.06" y1="30.06" x2="225.9" y2="225.9" id="a" gradientUnits="userSpaceOnUse"><stop offset="0" stop-color="#5a5350"/><stop offset=".107" stop-color="#6f6662"/><stop offset=".35" stop-color="#6f6662"/><stop offset=".5" stop-color="#7c726e"/><stop offset=".702" stop-color="#6f6662"/><stop offset=".887" stop-color="#6f6662"/><stop offset="1" stop-color="#5a5350"/></linearGradient></defs><rect width="256" height="256" rx="55" ry="55" x="-.05" fill="#ddd"/><rect width="246" height="246" rx="50" ry="50" x="4.95" y="5" fill="#7c726e"/><rect width="236" height="236" rx="47" ry="47" x="9.95" y="10" fill="url(#a)"/><circle cx="67.95" cy="189" r="24" fill="#eee"/><path d="M160 213h-34.1a82 82 0 00-81.95-82V97A116 116 0 01160 213z" fill="#eee"/><path d="M184 213A140 140 0 0043.95 73V38A175 175 0 01219 213z" fill="#eee"/><g style="line-height:50px;-inkscape-font-specification:Catamaran" aria-label="newsdash" font-weight="400" font-size="160" font-family="Catamaran" letter-spacing="0" word-spacing="0" stroke-width="2"><path style="line-height:129.34px;-inkscape-font-specification:'Catamaran Ultra-Bold'" d="M333.1 49.54q11.5-6.72 18.2-6.72 4.8 0 7.2 3.36 2.4 3.2 2.4 8.8v47.52h25.2V53.06q0-14.24-6.6-22.4-6.4-8.32-20.8-8.32-7.4 0-15.7 3.04-8.1 2.88-15.2 7.68l-4.3-8.16H308v77.6h25.1zM474 62.98q0-11.36-4.1-20.48-4-9.12-12.2-14.56-8.1-5.44-20-5.44-11.8 0-21.1 5.12-9.1 4.96-14.2 14.4-5.2 9.28-5.2 21.76 0 19.04 12.2 29.76 12.3 10.76 33.6 10.76 9.4 0 17.3-2.4 8-2.44 13.4-6.44l-7-17.44q-10.9 6.08-21.9 6.08-17 0-20.5-13.6H474zm-50-6.72q.6-5.92 4.1-9.44 3.7-3.68 9-3.68 5.6 0 8.8 3.68 3.3 3.52 4.3 9.44zM573.1 102.5l25.3-77.6h-25.5l-10.5 44.48-11.7-44.48h-25.3l-10.9 44.48-11.7-47.36-23.6 6.88 23.5 73.6h22.1l12.9-43.84L551 102.5zM603.8 95.78q5.4 4.32 14.6 6.42 9.1 2.1 15.5 2.1 15.8 0 24-6.6 8.3-6.56 8.3-18.56 0-16.64-26.7-25.92-10.1-3.52-10.1-6.08 0-2.24 2.4-3.68t6.1-1.44q8.6 0 19.8 4.96l7.2-16.32q-5.6-4.16-13.7-6.08-8-2.08-14.1-2.08-15.1 0-23.7 6.72-8.6 6.56-8.6 18.08 0 9.12 7.5 15.04t19.2 9.92q4.9 1.6 7.7 3.52t2.8 4q0 2.4-3 3.84-2.9 1.28-6.7 1.28-4.2 0-10.3-1.44-5.9-1.6-10.8-4z" font-weight="800" fill="#201e1d"/><path style="line-height:129.34px" d="M372.9 119.1v112.8h-7.6l-2.4-5.9q-4.8 3.8-10.4 5.9-5.6 2.1-10.6 2.1-17.3 0-27.2-11.2-9.8-11.4-9.8-30.1 0-11.8 4.5-21 4.7-9.2 13-14.4 8.5-5.1 19.8-5.1 4.2 0 8.8 1.6 4.8 1.6 9.1 4.3v-37.6zm-31.2 104.2q5.8 0 10.1-1.8 4.5-1.9 8.3-5.8v-45.9q-7.6-6.9-18.2-6.9-11.5 0-17.8 8.4-6.2 8.1-6.4 21.2 0 14 6.1 22.4 6.3 8.4 17.9 8.4zM420.9 168.5q5.8-2.5 10.6-3.8 5-1.4 11.8-1.4 8.8 0 12.8 4.9 4.2 5 4.2 13.6v4.3h-20q-12.6 0-20.3 6.3-7.7 6.2-7.7 17.4 0 10.7 6.7 17.5 6.9 6.7 19.9 6.7 6 0 12.4-2.9 6.4-3 10.8-7l1.6 7.8h9.4v-53.6q0-7.5-3.8-13.4-3.9-6-10.8-9.3-6.8-3.4-15.6-3.4-5.3 0-13.5 1.9-8 2-12.1 4.8zm3.1 41.3q0-6.4 4.1-10.7 4.4-4.5 11.9-4.5h20.5v17.6q-4.4 5.1-10.1 8.3-5.6 3.2-11.9 3.2-7.2 0-10.8-4.1-3.7-4.2-3.7-9.8zM508.3 227.4q4.3 3.1 11.9 4.8 7.5 1.8 12.9 1.8 15.1 0 23.1-5.9 8.1-6 8.1-16.7 0-15-26.1-24.6-8.6-2.9-13.2-5.9-4.7-3.1-4.8-7.2 0-5 4.4-8 4.7-3.2 11.9-3.2 5.9 0 10.5 1.4 4.7 1.4 10 3.8l4-8.6q-4.2-3-11.6-5-7.2-1.9-12.6-1.9-13.4 0-21.3 5.9-7.7 5.8-7.7 16 0 8.5 7.1 14 7 5.4 18.2 9.1 19.2 6.4 19.2 15 0 5.5-5.1 8.5t-13.9 3q-10.1 0-21-5.4zM641.8 151.9q12.3 0 18.2 7.5 6.1 7.4 6.1 19.9v52.4h-12.6V181q0-8.6-3.2-13.4-3.2-4.8-10.8-4.8-5.7 0-13.1 4-7.2 4-12.8 10.1v55H601V120.5l12.6-1.6v45.3q5.6-5.4 13.3-8.8 7.8-3.5 14.9-3.5z" letter-spacing="19.86" fill="#504a47"/></g><text y="239.2" x="295.6" style="line-height:50px;-inkscape-font-specification:Catamaran" font-weight="400" font-size="133.333" font-family="Catamaran" letter-spacing="0" word-spacing="0" stroke-width="2"/></svg>